<svg width="45" height="45" viewBox="0 0 45 45" fill="none" xmlns="http://www.w3.org/2000/svg">
<path d="M1.64062 8.41925C1.64062 3.76943 6.66654 0 12.8664 0H32.1282C38.328 0 43.354 3.76943 43.354 8.41925C43.354 11.3636 41.3388 13.9549 38.2864 15.4597C41.3388 16.9646 43.354 19.5558 43.354 22.5002C43.354 27.15 38.328 30.9195 32.1282 30.9195H31.8845C28.978 30.9195 26.3295 30.091 24.3359 28.7318V36.4893C24.3359 41.2011 19.1786 45 12.9268 45C6.74251 45 1.64062 41.2421 1.64062 36.5807C1.64062 33.6365 3.65561 31.0453 6.70772 29.5405C3.65561 28.0356 1.64062 25.4443 1.64062 22.5002C1.64062 19.5558 3.65578 16.9646 6.70811 15.4597C3.65578 13.9549 1.64062 11.3636 1.64062 8.41925ZM20.6587 16.8387H12.8664C8.69733 16.8387 5.31771 19.3735 5.31771 22.5002C5.31771 25.6148 8.67127 28.142 12.8181 28.1616C12.8341 28.1615 12.8502 28.1615 12.8664 28.1615H20.6587V16.8387ZM24.3359 22.5002C24.3359 25.6269 27.7154 28.1616 31.8845 28.1616H32.1282C36.2973 28.1616 39.6769 25.6269 39.6769 22.5002C39.6769 19.3735 36.2973 16.8387 32.1282 16.8387H31.8845C27.7154 16.8387 24.3359 19.3735 24.3359 22.5002ZM12.8664 30.9195C12.8502 30.9195 12.8341 30.9194 12.8181 30.9194C8.67127 30.9388 5.31771 33.466 5.31771 36.5807C5.31771 39.696 8.74248 42.2422 12.9268 42.2422C17.1786 42.2422 20.6587 39.655 20.6587 36.4893V30.9195H12.8664ZM12.8664 2.75781C8.69733 2.75781 5.31771 5.29254 5.31771 8.41925C5.31771 11.546 8.69733 14.0807 12.8664 14.0807H20.6587V2.75781H12.8664ZM24.3359 14.0807H32.1282C36.2973 14.0807 39.6769 11.546 39.6769 8.41925C39.6769 5.29254 36.2973 2.75781 32.1282 2.75781H24.3359V14.0807Z" fill="#DE6449"/>
</svg>
