<svg width="50" height="50" viewBox="0 0 50 50" fill="none" xmlns="http://www.w3.org/2000/svg">
<path d="M0 3V48H45V3H0ZM24.1071 37.9554C24.1071 42.3358 21.5196 44.4713 17.774 44.4713C14.391 44.4713 12.4272 42.7195 11.4308 40.6051L14.8741 38.5209C15.5381 39.6991 16.0423 40.6955 17.4917 40.6955C18.6971 40.6955 19.6875 40.1521 19.6875 38.0377V23.8929H24.1071V37.9554ZM34.0865 44.3709C30.16 44.3709 27.6228 42.599 26.3843 40.1521L29.8326 38.1562C30.7366 39.6368 31.9169 40.6232 34.0011 40.6232C35.7529 40.6232 36.7704 39.8478 36.7704 38.6394C36.7704 37.19 35.7228 36.6767 33.7892 35.8269L32.7325 35.3729C29.6809 34.0751 27.6579 32.4439 27.6579 28.9996C27.6579 25.8285 30.0737 23.5122 33.8494 23.5122C36.5384 23.5122 38.47 24.3479 39.8612 26.7948L36.5625 28.9152C35.8373 27.6164 35.0558 27.1071 33.8444 27.1071C32.6059 27.1071 31.8204 27.8926 31.8204 28.9152C31.8204 30.1838 32.6059 30.6971 34.418 31.4826L35.4747 31.9356C39.0696 33.4765 41.0936 35.0494 41.0936 38.5811C41.0946 42.3881 38.1044 44.3709 34.0865 44.3709Z" fill="#DE6449"/>
</svg>
