<svg width="50" height="50" viewBox="0 0 50 50" fill="none" xmlns="http://www.w3.org/2000/svg">
<path d="M29.0625 25C29.0625 27.2456 27.2456 29.0625 25 29.0625C22.7544 29.0625 20.9375 27.2456 20.9375 25C20.9375 22.7544 22.7544 20.9375 25 20.9375C27.2456 20.9375 29.0625 22.7544 29.0625 25Z" fill="#DE6449"/>
<path d="M25 29.375C22.5881 29.375 20.625 27.4125 20.625 25C20.625 22.5875 22.5881 20.625 25 20.625C27.4119 20.625 29.375 22.5875 29.375 25C29.375 27.4125 27.4119 29.375 25 29.375ZM25 21.25C22.9319 21.25 21.25 22.9319 21.25 25C21.25 27.0681 22.9319 28.75 25 28.75C27.0681 28.75 28.75 27.0681 28.75 25C28.75 22.9319 27.0681 21.25 25 21.25Z" fill="#B9513A"/>
<path d="M15.2963 47.1894C14.2269 47.1894 13.2531 46.9444 12.4012 46.4619C10.9762 45.6537 9.99125 44.2612 9.4725 42.3244C8.86938 40.07 8.94125 37.0756 9.68 33.6506C3.7225 31.6012 0.3125 28.4569 0.3125 25C0.3125 21.5425 3.72188 18.3987 9.67938 16.35C8.94063 12.9244 8.86812 9.93 9.47125 7.67562C9.99 5.73812 10.975 4.34562 12.3994 3.53812C13.2506 3.05562 14.225 2.81062 15.2944 2.81062C18.0369 2.81062 21.4762 4.51687 25.0012 7.62187C28.5262 4.52 31.9644 2.815 34.7038 2.815C35.7731 2.815 36.7469 3.06 37.5988 3.5425C39.0219 4.34937 40.0075 5.73937 40.5263 7.67437C41.13 9.92812 41.0575 12.9231 40.3181 16.3494C46.2769 18.3981 49.6875 21.5425 49.6875 25C49.6875 28.4575 46.2769 31.6019 40.3181 33.6512C41.0569 37.0769 41.1294 40.0712 40.5256 42.325C40.0069 44.2606 39.0225 45.6506 37.6006 46.4575C36.7481 46.94 35.7738 47.185 34.705 47.185C31.9637 47.185 28.5244 45.48 25.0006 42.3794C21.4756 45.4837 18.0369 47.1894 15.2963 47.1894ZM12.0856 34.3787C11.4662 37.3269 11.3969 39.8456 11.8881 41.6781C12.2269 42.9444 12.8138 43.8225 13.6344 44.2875C14.105 44.5544 14.6644 44.69 15.2963 44.69C17.4175 44.69 20.21 43.2637 23.1844 40.6669C21.6938 39.1656 20.2388 37.4662 18.8544 35.61C16.46 35.35 14.185 34.9362 12.0856 34.3787ZM26.8162 40.6656C29.79 43.26 32.5831 44.685 34.7044 44.6856C35.3363 44.6856 35.8956 44.55 36.3675 44.2831C37.1856 43.8194 37.7712 42.9431 38.1094 41.6787C38.6006 39.845 38.5319 37.3269 37.9125 34.3794C35.8112 34.9369 33.5356 35.3506 31.1419 35.6106C29.7581 37.4669 28.305 39.1656 26.8162 40.6656ZM22.2288 35.8706C23.1363 36.9806 24.065 38.0162 25 38.9581C25.9325 38.0169 26.8619 36.9812 27.7687 35.8706C26.8369 35.915 25.9088 35.9375 25 35.9375C24.0906 35.9375 23.1619 35.915 22.2288 35.8706ZM20.2181 33.2369C21.7775 33.37 23.3856 33.4375 25 33.4375C26.6156 33.4375 28.2219 33.37 29.7787 33.2375C30.7075 31.935 31.5931 30.57 32.4125 29.1781C33.205 27.8312 33.9506 26.4256 34.6294 24.9994C33.9525 23.5769 33.2075 22.1719 32.4131 20.8219C31.5956 19.4331 30.71 18.0681 29.7787 16.7625C28.2231 16.63 26.6169 16.5625 25 16.5625C23.3825 16.5625 21.7756 16.63 20.2206 16.7631C19.2894 18.0669 18.4025 19.4319 17.5837 20.8225C16.79 22.1719 16.045 23.5769 15.3675 25.0012C16.0437 26.4225 16.7887 27.8275 17.5831 29.1787C18.3981 30.5631 19.2837 31.9275 20.2181 33.2369ZM35.9319 27.9869C35.4906 28.8281 35.0331 29.6531 34.5662 30.4456C34.0956 31.2469 33.595 32.0506 33.075 32.8431C34.5588 32.6144 35.9781 32.3212 37.3069 31.9681C36.9381 30.6875 36.4762 29.3519 35.9319 27.9869ZM12.69 31.9675C14.0194 32.32 15.4381 32.6137 16.92 32.8425C16.3969 32.045 15.8963 31.2406 15.4288 30.4456C14.9631 29.6537 14.505 28.83 14.0644 27.9887C13.5225 29.3475 13.0613 30.6819 12.69 31.9675ZM37.385 25C38.34 27.1194 39.1181 29.2144 39.7025 31.2356C44.3288 29.6081 47.1875 27.2337 47.1875 25C47.1875 22.7662 44.3288 20.3919 39.7025 18.7644C39.1194 20.7856 38.3406 22.8806 37.385 25ZM10.295 18.7656C5.67062 20.3925 2.8125 22.7669 2.8125 25C2.8125 27.2337 5.67063 29.6081 10.2963 31.235C10.88 29.2131 11.6581 27.1181 12.6119 25.0012C11.6575 22.8837 10.8794 20.7887 10.295 18.7656ZM12.6894 18.0325C13.0606 19.3162 13.5219 20.6512 14.0644 22.0125C14.5044 21.1737 14.9619 20.3494 15.4294 19.555C15.8994 18.7556 16.4 17.9519 16.9219 17.1575C15.4381 17.3856 14.0194 17.6794 12.6894 18.0325ZM33.0763 17.1569C33.5994 17.955 34.1 18.7587 34.5675 19.555C35.0337 20.3469 35.4919 21.1712 35.9331 22.0125C36.4762 20.6519 36.9375 19.3169 37.3088 18.0319C35.9775 17.6787 34.5588 17.385 33.0763 17.1569ZM15.2944 5.31062C14.6625 5.31062 14.1037 5.44562 13.6337 5.71312C12.8137 6.17812 12.2262 7.05625 11.8869 8.3225C11.3962 10.1569 11.465 12.675 12.085 15.6219C14.185 15.0644 16.4613 14.65 18.8563 14.39C20.2419 12.5331 21.6969 10.835 23.1856 9.335C20.2106 6.73687 17.4163 5.31062 15.2944 5.31062ZM31.1425 14.3894C33.5363 14.6494 35.8119 15.0631 37.9131 15.6206C38.5331 12.6731 38.6025 10.1544 38.1106 8.32062C37.7719 7.05687 37.1856 6.18062 36.3669 5.71687C35.8956 5.45 35.3363 5.31437 34.7038 5.31437C32.5831 5.31437 29.7913 6.74 26.8169 9.335C28.3044 10.8344 29.7581 12.5331 31.1425 14.3894ZM25 14.0625C25.9088 14.0625 26.8369 14.085 27.7694 14.1294C26.8631 13.0206 25.9344 11.9856 25.0012 11.0431C24.0656 11.9869 23.1375 13.0219 22.2313 14.1294C23.1631 14.085 24.0912 14.0625 25 14.0625Z" fill="#DE6449"/>
<path d="M15.2944 3.12313C18.1031 3.12313 21.5419 4.94188 25.0019 8.04C28.4612 4.94438 31.8981 3.1275 34.7044 3.1275C35.7188 3.1275 36.6413 3.35875 37.4456 3.81438C38.7931 4.57813 39.7281 5.90375 40.2244 7.75563C40.8975 10.2038 40.7562 13.2181 39.9531 16.5556C45.7169 18.4813 49.375 21.5194 49.375 25C49.375 28.4806 45.7169 31.5188 39.9525 33.445C40.7906 37.0531 40.9313 40.1488 40.2238 42.2444C39.7275 44.0956 38.7931 45.4219 37.4469 46.1856C36.6413 46.6419 35.9094 46.875 34.8956 46.875C34.895 46.875 34.6356 46.875 34.635 46.875C31.8275 46.875 28.4587 45.0563 25 41.9619C21.5406 45.0594 18.1031 46.8769 15.2956 46.8769C14.2812 46.8769 13.3588 46.6456 12.5544 46.19C11.2056 45.4244 10.27 44.0969 9.77437 42.2438C9.03063 39.9206 9.18062 36.8669 10.0456 33.4444C4.2825 31.5181 0.625 28.4806 0.625 25C0.625 21.52 4.2825 18.4819 10.045 16.5556C9.61563 14.6438 9.34125 12.8688 9.33187 11.25C9.32438 9.97125 9.49875 8.78188 9.77375 7.75625C10.27 5.9025 11.205 4.575 12.5538 3.81C13.3575 3.35375 14.28 3.12313 15.2944 3.12313ZM11.8488 16.0088C14.0219 15.4119 16.435 14.9606 19.0256 14.6856C20.5144 12.6794 22.0725 10.8756 23.6419 9.32063C20.5969 6.60438 17.6319 4.9975 15.2944 4.9975C14.6075 4.9975 13.9975 5.14625 13.4794 5.44063C12.5837 5.94875 11.9469 6.89063 11.585 8.24125C11.0487 10.2425 11.1706 12.9475 11.8488 16.0088ZM38.1494 16.0081C38.8275 12.9469 38.9494 10.2413 38.4131 8.24C38.0519 6.89188 37.415 5.95188 36.5212 5.445C36.0025 5.15063 35.3906 5.00188 34.7044 5.00188C32.3688 5.00188 29.4056 6.60688 26.3613 9.32063C27.93 10.8756 29.4862 12.6794 30.9737 14.685C33.5631 14.96 35.9762 15.4113 38.1494 16.0081ZM21.5481 14.4788C22.6744 14.4119 23.8038 14.3538 24.9781 14.3538C26.1525 14.3538 27.325 14.4125 28.4513 14.4788C27.3212 13.0544 26.1612 11.7531 25.0006 10.6013C23.84 11.7531 22.6794 13.0544 21.5481 14.4788ZM25 33.75C26.7256 33.75 28.3775 33.6744 29.9487 33.5363C30.8981 32.2131 31.8162 30.8081 32.6813 29.3369C33.5269 27.9 34.2919 26.4456 34.975 25C34.2919 23.5544 33.5269 22.1006 32.6819 20.6644C31.8162 19.1925 30.8988 17.7881 29.9487 16.465C28.3781 16.3256 26.7262 16.25 25 16.25C23.2738 16.25 21.6213 16.3256 20.05 16.4644C19.0994 17.7875 18.1806 19.1925 17.315 20.6638C16.47 22.1006 15.705 23.555 15.0219 25.0006C15.705 26.4463 16.4694 27.9 17.3144 29.3363C18.18 30.8075 19.0981 32.2125 20.0481 33.5356C21.62 33.6744 23.2731 33.75 25 33.75ZM35.9663 22.7581C36.6694 21.065 37.2513 19.4025 37.695 17.8125C36.0994 17.3738 34.3369 17.0113 32.4275 16.7456C33.07 17.7 33.6956 18.6894 34.2975 19.7131C34.8937 20.725 35.4481 21.7425 35.9663 22.7581ZM14.0306 22.7588C14.5481 21.7431 15.1031 20.7256 15.6981 19.7131C16.3006 18.6894 16.9269 17.7006 17.57 16.7463C15.6606 17.0113 13.8981 17.3744 12.3025 17.8131C12.7463 19.4031 13.3281 21.065 14.0306 22.7588ZM39.4925 31.6388C44.54 29.9288 47.5 27.4163 47.5 25C47.5 22.5838 44.54 20.0713 39.4925 18.3613C38.8969 20.4894 38.0744 22.7256 37.0425 24.9994C38.0744 27.2738 38.8969 29.51 39.4925 31.6388ZM10.5062 31.6381C11.1012 29.5106 11.9231 27.2744 12.955 25.0013C11.9231 22.7275 11.1006 20.4906 10.5056 18.3625C5.45875 20.0725 2.5 22.5844 2.5 25C2.5 27.4163 5.45937 29.9281 10.5062 31.6381ZM32.4275 33.2544C34.3369 32.9894 36.0994 32.6269 37.695 32.1875C37.2506 30.5975 36.6688 28.935 35.9663 27.2413C35.4481 28.2569 34.8931 29.2744 34.2975 30.2869C33.6956 31.3106 33.07 32.3 32.4275 33.2544ZM17.5681 33.2538C16.9256 32.2994 16.3 31.3106 15.6975 30.2875C15.1025 29.2756 14.5481 28.2588 14.0306 27.2438C13.3281 28.9363 12.7469 30.5981 12.3031 32.1875C13.8981 32.6256 15.66 32.9881 17.5681 33.2538ZM15.2963 45.0019C17.6331 45.0019 20.5969 43.3956 23.6413 40.6806C22.0706 39.125 20.5131 37.3206 19.0238 35.3138C16.4344 35.0394 14.0225 34.5881 11.85 33.9913C11.1725 37.0525 11.0506 39.7575 11.5863 41.7588C11.9475 43.1088 12.585 44.0506 13.48 44.5588C13.9975 44.8531 14.6094 45.0019 15.2963 45.0019ZM34.7044 44.9981C35.3913 44.9981 36.0019 44.8494 36.5212 44.555C37.415 44.0481 38.0506 43.1081 38.4113 41.7594C38.9475 39.7575 38.8256 37.0525 38.1481 33.9919C35.975 34.5888 33.5625 35.04 30.9725 35.3144C29.485 37.3206 27.9281 39.1244 26.3594 40.68C29.4037 43.3925 32.3675 44.9975 34.7044 44.9981ZM25 39.4C26.1606 38.2475 27.3206 36.9456 28.4513 35.5213C27.3256 35.5881 26.2269 35.7294 25.0519 35.7294C23.8762 35.7294 22.6725 35.5881 21.5462 35.5213C22.6775 36.9463 23.8388 38.2481 25 39.4ZM15.0725 2.545C13.9481 2.545 13.1444 2.75625 12.2456 3.26563C10.7463 4.11625 9.71125 5.5725 9.17 7.59438C8.57 9.83625 8.62187 12.7831 9.3175 16.145C3.38687 18.2431 0 21.4531 0 25C0 28.5475 3.3875 31.7569 9.31812 33.855C8.6225 37.2169 8.57063 40.1638 9.17125 42.4056C9.71187 44.4263 10.7462 45.8825 12.2469 46.7344C13.1469 47.2444 14.2281 47.4613 15.3519 47.4613C18.1562 47.4613 21.4475 45.8769 25.0006 42.795C28.5531 45.8738 31.9 47.4975 34.7038 47.4981C35.8281 47.4981 36.8544 47.24 37.7544 46.73C39.2525 45.8806 40.2862 44.4263 40.8269 42.4069C41.4275 40.1644 41.3756 37.2175 40.68 33.8563C46.6119 31.7575 50 28.5475 50 25C50 21.4525 46.6125 18.2425 40.6806 16.1444C41.3769 12.7819 41.4281 9.835 40.8275 7.59313C40.2862 5.57375 39.2519 4.11938 37.7531 3.27C36.8537 2.76063 35.8275 2.50188 34.7038 2.50188C31.9006 2.50188 28.5544 4.12625 25.0012 7.20625C21.4475 4.12375 18.085 2.54313 15.28 2.54313L15.0725 2.545ZM12.325 15.2356C12.0362 13.7831 11.8425 12.4219 11.8319 11.2281C11.8225 10.1531 11.97 9.2175 12.1881 8.4025C12.505 7.22 13.0431 6.40625 13.7875 5.98375C14.21 5.74375 14.725 5.58125 15.3019 5.58125C17.29 5.58125 19.9062 6.9425 22.7288 9.3525C21.3406 10.7731 19.9837 12.3644 18.6875 14.0931C16.4469 14.3431 14.3106 14.7263 12.325 15.2356ZM27.2738 9.35375C30.0956 6.94563 32.7181 5.62688 34.7038 5.62688C35.2812 5.62688 35.7894 5.74875 36.2125 5.98875C36.9556 6.41 37.4931 7.22188 37.8094 8.40188C38.3556 10.1631 38.285 12.5044 37.6731 15.235C35.6875 14.7263 33.5519 14.3425 31.3119 14.0938C30.0162 12.3656 28.6606 10.7744 27.2738 9.35375ZM22.9206 13.7875C23.6056 12.975 24.3013 12.2063 25.0006 11.4888C25.7 12.2063 26.395 12.975 27.0794 13.7875C26.38 13.7625 25.6844 13.75 25 13.75C24.3156 13.75 23.6206 13.7625 22.9206 13.7875ZM20.3906 17.0625C21.8937 16.9381 23.4425 16.8494 25 16.8494C26.5569 16.8494 28.1056 16.9381 29.6081 17.0625C30.5031 18.3244 31.3556 19.6413 32.1431 20.9806C32.9069 22.2794 33.6263 23.63 34.2825 24.9994C33.6256 26.3694 32.9062 27.7206 32.1425 29.0194C31.3544 30.3594 30.5025 31.6756 29.6075 32.9375C28.1056 33.0619 26.5569 33.2288 25 33.2288C23.4419 33.2288 21.8925 33.0613 20.3888 32.9369C19.4931 31.6756 18.6406 30.3588 17.8525 29.0188C17.0887 27.7206 16.37 26.37 15.7137 25C16.37 23.63 17.0894 22.2788 17.8531 20.98C18.6419 19.6406 19.495 18.3238 20.3906 17.0625ZM35.8888 21.265C35.5456 20.6287 35.1937 20.0038 34.8369 19.3963C34.4806 18.7906 34.1075 18.1825 33.7212 17.5781C34.83 17.7669 35.8994 17.9925 36.9175 18.2531C36.6256 19.2319 36.2812 20.2394 35.8888 21.265ZM13.08 18.2531C14.0981 17.9925 15.1675 17.7669 16.2762 17.5781C15.8894 18.1825 15.5163 18.7906 15.16 19.3956C14.8031 20.0031 14.4513 20.6281 14.1081 21.2644C13.7156 20.24 13.3719 19.2325 13.08 18.2531ZM37.7281 24.9994C38.6125 23.0231 39.345 21.0669 39.9094 19.1706C44.2238 20.745 46.875 22.9506 46.875 25C46.875 27.0494 44.2238 29.255 39.9094 30.8294C39.3444 28.9325 38.6125 26.9756 37.7281 24.9994ZM10.0887 30.8288C5.77563 29.2544 3.125 27.0488 3.125 25C3.125 22.9513 5.77563 20.7456 10.0881 19.1713C10.6525 21.0681 11.3844 23.0244 12.2687 25.0006C11.385 26.9763 10.6531 28.9325 10.0887 30.8288ZM33.7206 32.4225C34.1069 31.8175 34.4806 31.2094 34.8363 30.6044C35.1937 29.9969 35.5456 29.3713 35.8888 28.735C36.2812 29.7606 36.625 30.7688 36.9175 31.7481C35.8988 32.0075 34.8294 32.2338 33.7206 32.4225ZM13.0806 31.7469C13.3725 30.7681 13.7163 29.7613 14.1081 28.7369C14.4506 29.3725 14.8025 29.9975 15.1594 30.6044C15.515 31.2094 15.8881 31.8169 16.275 32.4219C15.1669 32.2325 14.0981 32.0069 13.0806 31.7469ZM15.2963 44.3769C14.7188 44.3769 14.2113 44.255 13.7881 44.015C13.0444 43.5925 12.5062 42.7794 12.19 41.5969C11.6706 39.8188 11.7294 37.4769 12.3263 34.7638C14.3112 35.2725 16.4462 35.6563 18.6856 35.905C19.9825 37.6338 21.3394 39.2256 22.7281 40.6475C19.9063 43.0581 17.2831 44.3775 15.2963 44.3769ZM31.3112 35.9063C33.5513 35.6569 35.6869 35.2738 37.6725 34.765C38.3631 37.7275 38.4175 40.0888 37.8081 41.5975C37.4925 42.7781 36.9556 43.59 36.2131 44.0106C35.7894 44.2506 35.2819 44.3725 34.705 44.3725C32.7175 44.3725 30.0938 43.0538 27.2725 40.6469C28.66 39.2263 30.0156 37.635 31.3112 35.9063ZM25 38.5125C24.3 37.795 23.6037 37.0256 22.9187 36.2125C23.6187 36.2375 24.315 36.25 25 36.25C25.6844 36.25 26.38 36.2375 27.0794 36.2125C26.395 37.0256 25.6994 37.795 25 38.5125Z" fill="#B9513A"/>
</svg>
