<svg width="45" height="45" viewBox="0 0 45 45" fill="none" xmlns="http://www.w3.org/2000/svg">
<g clip-path="url(#clip0_1_2)">
<path d="M22.5 45C34.9264 45 45 34.9264 45 22.5C45 10.0736 34.9264 0 22.5 0C10.0736 0 0 10.0736 0 22.5C0 34.9264 10.0736 45 22.5 45Z" fill="#DE6449"/>
<path d="M11.4809 35.4239H25.2094C25.2094 35.4239 22.1684 28.5069 22.9418 22.1612C23.7153 15.8155 28.725 12.9239 31.5639 12.6163C34.4028 12.3087 35.9496 14.0577 35.9496 14.0577L36.5649 13.1261C36.5649 13.1261 32.4867 8.9952 27.3276 9.46102C22.1684 9.92684 18.6088 13.3282 16.3852 17.4591C14.1703 21.5899 12.8783 24.4815 11.9994 28.8145C11.1205 33.1563 11.4809 35.4239 11.4809 35.4239Z" fill="white"/>
<path d="M8.74748 28.5069L11.4281 28.7091L10.9623 31.3897L8.43108 31.0821L8.74748 28.5069Z" fill="white"/>
<path d="M12.975 22.8292L13.6957 20.8165L11.3227 19.8849L10.5492 22.0558L12.975 22.8292Z" fill="white"/>
<path d="M16.3324 15.921L17.7299 14.2686L15.9281 13.0821L14.478 14.6817L16.3324 15.921Z" fill="white"/>
<path d="M19.9975 9.52255L21.2367 11.0167L22.9418 10.0323L21.7026 8.63486L19.9975 9.52255Z" fill="white"/>
<path d="M26.0356 7.81747L26.3432 9.31161L28.4613 9.25888L28.2504 7.91415L26.0356 7.81747Z" fill="white"/>
<path d="M33.2074 9.41708L33.1547 10.3487L34.5961 11.1222L34.9037 10.6563L33.2074 9.41708Z" fill="white"/>
<path d="M32.8998 13.3897V14.1632L34.2973 14.3214V13.7061L32.8998 13.3897Z" fill="white"/>
<path d="M28.4613 14.0577L29.1293 15.297L30.1137 14.5235L29.9115 13.6974L28.4613 14.0577Z" fill="white"/>
<path d="M26.3432 15.6573L27.3715 17.2042L26.7563 18.2852L25.2621 16.6329L26.3432 15.6573Z" fill="white"/>
<path d="M24.2778 19.9464L23.6098 21.2911L25.3676 22.7852L25.7807 21.0802L24.2778 19.9464Z" fill="white"/>
<path d="M23.5571 24.6397L23.4516 26.4415L25.6225 27.3731L25.517 25.6681L23.5571 24.6397Z" fill="white"/>
<path d="M24.1811 31.0382L24.6996 32.8927L27.433 33.0509L26.4487 31.0382H24.1811Z" fill="white"/>
</g>
<defs>
<clipPath id="clip0_1_2">
<rect width="45" height="45" fill="white"/>
</clipPath>
</defs>
</svg>
